<svg width="16" height="16" viewBox="0 0 16 16" fill="none" xmlns="http://www.w3.org/2000/svg">
<path d="M15.5 8C15.5 12.1421 12.1421 15.5 8 15.5C3.85786 15.5 0.5 12.1421 0.5 8C0.5 3.85786 3.85786 0.5 8 0.5C12.1421 0.5 15.5 3.85786 15.5 8Z" fill="white" stroke="#F0792E"/>
<g clip-path="url(#clip0_2910_25263)">
<path d="M9.13691 10.8534L9.0403 11.3032C8.75047 11.4334 8.51895 11.5326 8.34655 11.6007C8.17397 11.6691 7.97343 11.7031 7.74495 11.7031C7.39408 11.7031 7.12116 11.6053 6.92652 11.4108C6.73187 11.2157 6.63452 10.9683 6.63452 10.6683C6.63452 10.5521 6.64158 10.4326 6.65627 10.3109C6.67108 10.1891 6.69463 10.0518 6.72685 9.89839L7.08906 8.43852C7.12129 8.29872 7.14868 8.16627 7.17062 8.04101C7.19286 7.91654 7.20358 7.80201 7.20358 7.69891C7.20358 7.51247 7.16969 7.38207 7.1022 7.30875C7.03472 7.23564 6.90594 7.19852 6.71477 7.19852C6.62113 7.19852 6.52489 7.2156 6.4268 7.24863C6.32826 7.28179 6.24405 7.31383 6.17334 7.34361L6.2702 6.89354C6.50748 6.78352 6.73429 6.68932 6.95124 6.61113C7.1682 6.53273 7.37319 6.49349 7.5671 6.49349C7.91555 6.49349 8.18444 6.58939 8.37326 6.78119C8.56208 6.97313 8.65646 7.22195 8.65646 7.52856C8.65646 7.592 8.65026 7.70378 8.63694 7.86354C8.62393 8.02366 8.5997 8.17036 8.56437 8.3038L8.20371 9.75782C8.17415 9.87461 8.14757 10.0081 8.12445 10.1584C8.10059 10.3076 8.08919 10.4216 8.08919 10.4981C8.08919 10.6912 8.12699 10.823 8.20278 10.8931C8.27913 10.9632 8.41063 10.998 8.5974 10.998C8.68509 10.998 8.78486 10.9803 8.89573 10.9455C9.00628 10.9107 9.0869 10.8802 9.13691 10.8534ZM9.22838 4.74902C9.22838 5.00236 9.14453 5.21871 8.97604 5.39661C8.80798 5.57514 8.60546 5.66448 8.36855 5.66448C8.1309 5.66448 7.92788 5.57514 7.7579 5.39661C7.58823 5.21864 7.50321 5.00236 7.50321 4.74902C7.50321 4.49618 7.58823 4.27948 7.7579 4.09932C7.92757 3.91945 8.13096 3.82954 8.36855 3.82954C8.6054 3.82954 8.80798 3.91966 8.97604 4.09932C9.14466 4.27948 9.22838 4.49625 9.22838 4.74902Z" fill="#F0792E"/>
</g>
<defs>
<clipPath id="clip0_2910_25263">
<rect width="6.91438" height="7.87358" fill="white" transform="translate(4.24414 3.82954)"/>
</clipPath>
</defs>
</svg>
