<svg width="13" height="13" viewBox="0 0 13 13" fill="none" xmlns="http://www.w3.org/2000/svg">
<g clip-path="url(#clip0_66815_11607)">
<path d="M7.69101 6.49027L12.753 11.5524C13.0824 11.8816 13.0824 12.414 12.753 12.7433C12.4237 13.0726 11.8913 13.0726 11.562 12.7433L6.49993 7.68119L1.43799 12.7433C1.10856 13.0726 0.576336 13.0726 0.247067 12.7433C-0.0823557 12.414 -0.0823557 11.8816 0.247067 11.5524L5.30901 6.49027L0.247067 1.42817C-0.0823557 1.0989 -0.0823557 0.566522 0.247067 0.237254C0.411162 0.0730047 0.626921 -0.00950432 0.842527 -0.00950432C1.05813 -0.00950432 1.27374 0.0730047 1.43799 0.237254L6.49993 5.29935L11.562 0.237254C11.7263 0.0730047 11.9419 -0.00950432 12.1575 -0.00950432C12.3731 -0.00950432 12.5887 0.0730047 12.753 0.237254C13.0824 0.566522 13.0824 1.0989 12.753 1.42817L7.69101 6.49027Z" fill="#434B53"/>
</g>
<defs>
<clipPath id="clip0_66815_11607">
<rect width="13" height="13" fill="white" transform="matrix(1 0 0 -1 0 13)"/>
</clipPath>
</defs>
</svg>
